<svg width="92" height="110" viewBox="0 0 92 110" fill="none" xmlns="http://www.w3.org/2000/svg">
<g opacity="0.04">
<path d="M60.4904 2.64703H31.455V12.5692H60.4904V2.64703ZM41.1334 67.1409H50.8119V37.3745H41.1334V67.1409ZM79.9925 34.2986L86.8642 27.2539C84.7833 24.7238 82.5089 22.3425 80.0409 20.2588L73.1692 27.3035C65.6683 21.1518 56.2318 17.4806 45.9727 17.4806C21.9217 17.4806 2.41956 37.4737 2.41956 62.1302C2.41956 86.7867 21.8733 106.78 45.9727 106.78C70.072 106.78 89.5258 86.7867 89.5258 62.1302C89.5258 51.6624 85.9447 41.9883 79.9925 34.2986ZM45.9727 96.9073C27.2448 96.9073 12.098 81.3791 12.098 62.1798C12.098 42.9805 27.2448 27.4524 45.9727 27.4524C64.7005 27.4524 79.8473 42.9805 79.8473 62.1798C79.8473 81.3791 64.7005 96.9073 45.9727 96.9073Z" fill="#DEE33D"/>
<path fill-rule="evenodd" clip-rule="evenodd" d="M29.0354 0.166382H60.4904V2.64692H62.91V15.0496H48.0908C57.3381 15.4836 65.8798 18.7451 72.9539 24.0161L79.8833 16.9123L81.5791 18.3439C84.1802 20.54 86.5573 23.0324 88.7141 25.6549L90.1467 27.3968L83.1935 34.525C88.6821 42.3235 91.9454 51.8618 91.9454 62.1301C91.9454 88.1548 71.4102 109.26 45.9727 109.26C20.5353 109.26 0 88.1548 0 62.1301C0 36.8349 19.445 16.1896 43.8447 15.0496H29.0354V0.166382ZM58.0708 5.12745H33.8746V10.0885H58.0708V5.12745ZM45.9727 19.9611C23.258 19.9611 4.83923 38.8436 4.83923 62.1301C4.83923 85.4185 23.2114 104.299 45.9727 104.299C68.734 104.299 87.1062 85.4185 87.1062 62.1301C87.1062 52.2526 83.7289 43.116 78.0972 35.8405L76.7563 34.1082L83.5529 27.1405C82.4665 25.9154 81.335 24.7442 80.1589 23.6457L73.3488 30.6273L71.6577 29.2404C64.5655 23.4238 55.6568 19.9611 45.9727 19.9611ZM45.9727 29.9328C28.5812 29.9328 14.5177 44.3504 14.5177 62.1798C14.5177 80.0091 28.5812 94.4267 45.9727 94.4267C63.3642 94.4267 77.4277 80.0091 77.4277 62.1798C77.4277 44.3504 63.3642 29.9328 45.9727 29.9328ZM9.67847 62.1798C9.67847 41.6105 25.9086 24.9717 45.9727 24.9717C66.0369 24.9717 82.267 41.6105 82.267 62.1798C82.267 82.7491 66.0369 99.3878 45.9727 99.3878C25.9086 99.3878 9.67847 82.7491 9.67847 62.1798ZM38.7139 34.8939H53.2316V69.6214H38.7139V34.8939ZM43.5531 39.8549V64.6603H48.3923V39.8549H43.5531Z" fill="#222222"/>
</g>
</svg>
